<svg xmlns="http://www.w3.org/2000/svg" version="1.1" xmlns:xlink="http://www.w3.org/1999/xlink" viewBox="0 0 200 200"><rect width="200" height="200" fill="url('#gradient')"></rect><defs><linearGradient id="gradient" gradientTransform="rotate(45 0.5 0.5)"><stop offset="0%" stop-color="#fa7439"></stop><stop offset="100%" stop-color="#eb2e40"></stop></linearGradient></defs><g><g fill="#45ab32" transform="matrix(1.8086546953193994,0,0,1.8086546953193994,9.786375463412448,113.57383600781867)" stroke="#5ed03e" stroke-width="1.25"><path d="M4.95 0L1.65 0L1.65-8.28L0.12-8.28L0.12-10.57L1.65-10.57L1.65-11.41Q1.65-13.21 2.71-14.21Q3.78-15.21 5.70-15.21L5.70-15.21Q6.41-15.21 7.25-15L7.25-15L7.26-12.58Q6.95-12.67 6.45-12.67L6.45-12.67Q4.95-12.67 4.95-11.38L4.95-11.38L4.95-10.57L7.01-10.57L7.01-8.28L4.95-8.28L4.95 0ZM7.76-4.82L7.75-5.38Q7.75-6.96 8.37-8.20Q8.98-9.43 10.14-10.10Q11.29-10.76 12.84-10.76L12.84-10.76Q15.21-10.76 16.58-9.29Q17.95-7.82 17.95-5.29L17.95-5.29L17.95-5.18Q17.95-2.71 16.58-1.25Q15.21 0.20 12.86 0.20L12.86 0.20Q10.61 0.20 9.24-1.16Q7.87-2.51 7.76-4.82L7.76-4.82ZM11.05-5.77L11.04-5.18Q11.04-3.71 11.50-3.03Q11.96-2.34 12.86-2.34L12.86-2.34Q14.62-2.34 14.66-5.05L14.66-5.05L14.66-5.38Q14.66-8.22 12.84-8.22L12.84-8.22Q11.19-8.22 11.05-5.77L11.05-5.77ZM18.99-4.82L18.98-5.38Q18.98-6.96 19.60-8.20Q20.21-9.43 21.37-10.10Q22.52-10.76 24.07-10.76L24.07-10.76Q26.45-10.76 27.81-9.29Q29.18-7.82 29.18-5.29L29.18-5.29L29.18-5.18Q29.18-2.71 27.81-1.25Q26.44 0.20 24.09 0.20L24.09 0.20Q21.84 0.20 20.47-1.16Q19.10-2.51 18.99-4.82L18.99-4.82ZM22.29-5.77L22.28-5.18Q22.28-3.71 22.73-3.03Q23.19-2.34 24.09-2.34L24.09-2.34Q25.85-2.34 25.89-5.05L25.89-5.05L25.89-5.38Q25.89-8.22 24.07-8.22L24.07-8.22Q22.42-8.22 22.29-5.77L22.29-5.77ZM30.21-5.36L30.21-5.36Q30.21-7.87 31.30-9.32Q32.38-10.76 34.33-10.76L34.33-10.76Q35.74-10.76 36.71-9.65L36.71-9.65L36.71-15L40.01-15L40.01 0L37.05 0L36.88-1.13Q35.87 0.20 34.31 0.20L34.31 0.20Q32.42 0.20 31.32-1.25Q30.21-2.70 30.21-5.36ZM33.52-5.76L33.51-5.16Q33.51-2.34 35.15-2.34L35.15-2.34Q36.24-2.34 36.71-3.26L36.71-3.26L36.71-7.29Q36.26-8.22 35.17-8.22L35.17-8.22Q33.64-8.22 33.52-5.76L33.52-5.76ZM45.35-10.57L45.35 0L42.05 0L42.05-10.57L45.35-10.57ZM41.86-13.29L41.86-13.29Q41.86-13.99 42.36-14.44Q42.87-14.89 43.68-14.89Q44.49-14.89 45-14.44Q45.51-13.99 45.51-13.29Q45.51-12.59 45-12.14Q44.49-11.69 43.68-11.69Q42.87-11.69 42.36-12.14Q41.86-12.59 41.86-13.29ZM52.49 0.20L52.49 0.20Q50.06 0.20 48.55-1.25Q47.05-2.71 47.05-5.03L47.05-5.03L47.05-5.30Q47.05-6.92 47.65-8.16Q48.25-9.40 49.40-10.08Q50.56-10.76 52.14-10.76L52.14-10.76Q54.37-10.76 55.65-9.38Q56.94-8.00 56.94-5.53L56.94-5.53L56.94-4.25L50.40-4.25Q50.58-3.36 51.17-2.85Q51.77-2.34 52.71-2.34L52.71-2.34Q54.28-2.34 55.16-3.44L55.16-3.44L56.66-1.66Q56.04-0.81 54.92-0.31Q53.79 0.20 52.49 0.20ZM52.12-8.22L52.12-8.22Q50.67-8.22 50.40-6.31L50.40-6.31L53.72-6.31L53.72-6.56Q53.74-7.35 53.32-7.79Q52.90-8.22 52.12-8.22ZM64.70-7.40L64.70-4.85L58.83-4.85L58.83-7.40L64.70-7.40ZM70.48-15L70.48-9.43Q71.53-10.76 73.17-10.76L73.17-10.76Q74.92-10.76 75.81-9.73Q76.70-8.69 76.72-6.67L76.72-6.67L76.72 0L73.42 0L73.42-6.59Q73.42-7.43 73.08-7.83Q72.73-8.22 71.91-8.22L71.91-8.22Q70.90-8.22 70.48-7.58L70.48-7.58L70.48 0L67.19 0L67.19-15L70.48-15ZM84.94 0L84.84-1.14Q83.80 0.20 82.02 0.20L82.02 0.20Q80.28 0.20 79.39-0.82Q78.50-1.83 78.50-3.72L78.50-3.72L78.50-10.57L81.79-10.57L81.79-3.70Q81.79-2.34 83.11-2.34L83.11-2.34Q84.24-2.34 84.72-3.15L84.72-3.15L84.72-10.57L88.03-10.57L88.03 0L84.94 0ZM99.64-5.36L99.64-5.20Q99.64-2.60 98.56-1.20Q97.49 0.20 95.54 0.20L95.54 0.20Q93.93 0.20 92.94-1.08L92.94-1.08L92.80 0L89.85 0L89.85-15L93.14-15L93.14-9.72Q94.06-10.76 95.52-10.76L95.52-10.76Q97.49-10.76 98.56-9.35Q99.64-7.93 99.64-5.36L99.64-5.36ZM96.34-5.40L96.34-5.40Q96.34-6.92 95.93-7.57Q95.53-8.22 94.69-8.22L94.69-8.22Q93.57-8.22 93.14-7.37L93.14-7.37L93.14-3.17Q93.56-2.33 94.71-2.33L94.71-2.33Q95.87-2.33 96.18-3.47L96.18-3.47Q96.34-4.02 96.34-5.40Z"></path></g></g></svg>